<?xml version="1.0" encoding="utf-8"?>
<!-- Generator: Adobe Illustrator 16.0.0, SVG Export Plug-In . SVG Version: 6.00 Build 0)  -->
<!DOCTYPE svg PUBLIC "-//W3C//DTD SVG 1.1//EN" "http://www.w3.org/Graphics/SVG/1.1/DTD/svg11.dtd">
<svg version="1.1" id="Layer_1" xmlns="http://www.w3.org/2000/svg" xmlns:xlink="http://www.w3.org/1999/xlink" x="0px" y="0px"
	 width="174px" height="34px" viewBox="0 0 174 34" enable-background="new 0 0 174 34" xml:space="preserve">
<g>
	<path fill="#F7F6F4" d="M2.2,0c1.2,0,2.2,1,2.2,2.2c0,1.2-1,2.2-2.2,2.2S0,3.5,0,2.2C0,1,1,0,2.2,0z M0.5,8.1h3.4v16.6H0.5V8.1z"/>
	<path fill="#F7F6F4" d="M8.9,20.3c1.6,1.2,3.3,1.8,4.9,1.8c1.4,0,2.9-0.8,2.9-2.1c0-1.9-2.8-2-5.2-2.8c-2-0.7-3.8-1.9-3.8-4.3
		c0-3.6,3.2-5.2,6.1-5.2c2.4,0,4.2,0.8,5.5,1.8L17.6,12c-1-0.8-2.2-1.3-3.6-1.3c-1.6,0-3,0.8-3,2.1c0,1.1,1.3,1.5,3,1.9
		c2.6,0.7,6,1.8,6,5.3c0,3.1-2.9,5.1-6.2,5.1c-2.6,0-4.9-0.8-6.7-2.3L8.9,20.3z"/>
	<path fill="#F7F6F4" d="M30.3,7.8c4.9,0,8.6,3.7,8.6,8.7c0,4.9-3.7,8.7-8.6,8.7s-8.6-3.7-8.6-8.7C21.7,11.5,25.4,7.8,30.3,7.8z
		 M30.3,21.9c3.1,0,5.2-2.4,5.2-5.5S33.4,11,30.3,11s-5.2,2.4-5.2,5.5S27.2,21.9,30.3,21.9z"/>
	<path fill="#F7F6F4" d="M49.3,25.1c-1.5,0-3-0.4-4.2-1.1c-2.5-1.5-4.2-4.2-4.2-7.6c0-3.3,1.8-6.1,4.3-7.6c1.1-0.7,2.5-1.1,4.1-1.1
		c1.9,0,3.7,0.6,5.2,1.9V8.1h3.3V24c0,2.5-0.3,4.1-1,5.4c-1.3,2.6-3.9,4.1-7.2,4.1c-4.3,0-7-2.2-8.1-3.9l2.5-2.3
		c1.2,1.6,2.8,3,5.5,3c1.8,0,3.2-0.7,4-1.9c0.6-0.9,0.9-2.2,0.9-4.3v-0.9C53,24.5,51.3,25.1,49.3,25.1z M54.3,13.3
		c-1-1.3-2.7-2.4-4.7-2.4c-3.2,0-5.3,2.6-5.3,5.5c0,3,2.3,5.5,5.5,5.5c1.7,0,3.4-0.8,4.6-2.4V13.3z"/>
	<path fill="#F7F6F4" d="M70.6,11.1C70.2,11,69.8,11,69.3,11c-1.7,0-3.6,1.2-4.5,2.8v11h-3.4V8.1h3.3V10c0.8-1.1,2.5-2.3,5-2.3
		c0.4,0,0.9,0,1.3,0.1L70.6,11.1z"/>
	<path fill="#F7F6F4" d="M85.9,23.2c-1.3,1.2-3.1,1.9-5.1,1.9c-1.5,0-3-0.4-4.2-1.1c-2.5-1.5-4.2-4.2-4.2-7.6c0-3.3,1.8-6.1,4.3-7.6
		c1.1-0.7,2.5-1.1,4.1-1.1c1.9,0,3.7,0.6,5.2,1.9V8.1h3.3v16.6h-3.3V23.2z M85.8,13.3C84.7,12,83,11,81,11c-3.2,0-5.3,2.6-5.3,5.5
		c0,3,2.3,5.5,5.5,5.5c1.7,0,3.4-0.8,4.6-2.4V13.3z"/>
	<path fill="#F7F6F4" d="M96.1,8.1v1.6c0.7-0.7,2.6-1.9,4.9-1.9c2.4,0,4.5,1.1,5.9,2.8c1.5-1.5,3.3-2.8,6.3-2.8
		c2.4,0,4.5,1.1,5.9,2.8c1,1.3,1.5,2.9,1.5,5.7v8.5h-3.4v-9c0-1.7-0.4-2.6-1-3.3c-0.7-0.9-1.9-1.4-3.1-1.4c-2.4,0-4,1.2-5.1,2.4
		c0.2,0.8,0.3,1.8,0.3,2.9v8.5H105v-9c0-1.7-0.4-2.6-1-3.3c-0.7-0.9-1.9-1.4-3.2-1.4c-2,0-3.7,1.2-4.7,2.4v11.4h-3.4V8.1H96.1z"/>
	<path fill="#F7F6F4" d="M148.6,17.1c0.2,2.8,2.5,5,5.4,5c2.5,0,3.8-1.2,4.8-2.3l2.2,2.1c-1.2,1.6-3.6,3.1-7,3.1
		c-4.8,0-8.6-3.7-8.6-8.7c0-5,3.4-8.7,8.1-8.7c4.6,0,8,3.7,8,8.7c0,0.1,0,0.4,0,0.7H148.6z M148.9,14.3h9c-0.5-2.1-2.4-3.6-4.4-3.6
		C151.4,10.7,149.4,12.2,148.9,14.3z"/>
	<path fill="#F7F6F4" d="M174,11.1c-0.4-0.1-0.8-0.1-1.3-0.1c-1.7,0-3.6,1.2-4.5,2.8v11h-3.4V8.1h3.2V10c0.8-1.1,2.5-2.3,5-2.3
		c0.4,0,0.9,0,1.3,0.1L174,11.1z"/>
	<path fill="#F7F6F4" d="M140.7,10.6c-1.4-1.7-3.5-2.8-5.9-2.8c-3,0-4.8,1.2-6.3,2.8c-1.4-1.7-3.4-2.8-5.9-2.8c-2,0-3.8,0.9-4.6,1.7
		v3.7c1-1.1,2.6-2.2,4.5-2.2c1.3,0,2.5,0.6,3.2,1.4c0.6,0.7,1,1.6,1,3.3v9h3.4v-8.5c0-1.2-0.1-2.1-0.3-2.9c1.1-1.1,2.7-2.4,5.1-2.4
		c1.2,0,2.4,0.6,3.1,1.4c0.6,0.7,1,1.6,1,3.3v9h3.4v-8.5C142.2,13.5,141.7,11.8,140.7,10.6z"/>
</g>
<g>
</g>
<g>
</g>
<g>
</g>
<g>
</g>
<g>
</g>
<g>
</g>
<g>
</g>
<g>
</g>
<g>
</g>
<g>
</g>
<g>
</g>
<g>
</g>
<g>
</g>
<g>
</g>
<g>
</g>
</svg>
