<?xml version="1.0" encoding="utf-8"?>
<!-- Generator: Adobe Illustrator 16.0.0, SVG Export Plug-In . SVG Version: 6.00 Build 0)  -->
<!DOCTYPE svg PUBLIC "-//W3C//DTD SVG 1.1//EN" "http://www.w3.org/Graphics/SVG/1.1/DTD/svg11.dtd">
<svg version="1.1" id="Layer_1" xmlns="http://www.w3.org/2000/svg" xmlns:xlink="http://www.w3.org/1999/xlink" x="0px" y="0px"
	 width="105px" height="19px" viewBox="0 0 105 19" enable-background="new 0 0 105 19" xml:space="preserve">
<g>
	<path fill-rule="evenodd" clip-rule="evenodd" fill="#F7F6F4" d="M52.9,12.8c-0.2,0.1-0.4,0.2-0.6,0.3c-0.6,0.3-1.3,0.4-1.8,0.4
		c-0.6,0-1.5,0-2.5-0.7c-1.3-0.9-1.9-2.5-1.9-4c0-2.9,2.4-4.3,4.3-4.3c0.7,0,1.4,0.2,1.9,0.5c0.9,0.6,1.2,1.4,1.3,1.9l-4.4,1.8
		l-1.4,0.1c0.5,2.4,2.1,3.8,3.9,3.8c1,0,1.6-0.3,2.3-0.7L52.9,12.8L52.9,12.8z M51.1,7.2c0.4-0.1,0.5-0.2,0.5-0.5
		c0-0.7-0.8-1.6-1.9-1.6c-0.7,0-2.2,0.6-2.2,2.6c0,0.3,0,0.7,0.1,1L51.1,7.2L51.1,7.2z M45.6,13.2l0.7-0.4c-0.3,0-0.6-0.1-1-0.1
		c-0.6-0.1-0.7-0.2-0.7-0.9V7.5c0-2.7,0-4.9,0.2-6.4C44.8,0.4,45,0.3,45.6,0h-2.7l-1.4,0.7H43c0,0.9-0.1,2.1-0.1,3
		c-0.1,1.9-0.1,4-0.1,5.5v3.1c0,0.4-0.1,0.4-0.5,1H45.6L45.6,13.2z M39.4,5.4c0.4,0.4,1.3,1.1,1.3,2.5c0,1.4-0.8,2-1.6,2.7
		c-0.2,0.2-0.5,0.5-0.5,0.9c0,0.4,0.3,0.6,0.5,0.8l0.7,0.5c0.8,0.7,1.6,1.3,1.6,2.6c0,1.8-1.7,3.5-4.9,3.5c-2.7,0-4-1.3-4-2.7
		c0-0.7,0.3-1.6,1.4-2.3c1.2-0.7,2.7-0.8,3.6-0.9c-0.3-0.3-0.6-0.7-0.6-1.3c0-0.3,0.1-0.5,0.2-0.7c-0.2,0-0.4,0-0.6,0
		c-2,0-3.1-1.5-3.1-2.9c0-0.9,0.4-1.8,1.2-2.5c1.1-0.9,2.3-1,3.4-1h3.9l-1.2,0.7H39.4L39.4,5.4z M38.1,13.7c-0.1,0-0.2,0-0.4,0
		c-0.2,0-1.2,0-2,0.3c-0.4,0.1-1.6,0.6-1.6,1.9s1.3,2.3,3.3,2.3c1.8,0,2.8-0.9,2.8-2C40.1,15.2,39.5,14.7,38.1,13.7L38.1,13.7z
		 M38.6,10.2c0.4-0.4,0.5-1,0.5-1.4c0-1.3-0.8-3.4-2.4-3.4c-0.5,0-1,0.2-1.3,0.6C35.1,6.4,35,6.9,35,7.4c0,1.3,0.7,3.3,2.3,3.3
		C37.8,10.7,38.4,10.5,38.6,10.2L38.6,10.2z M27.8,13.5c-3,0-4.6-2.3-4.6-4.4c0-2.5,2-4.6,4.9-4.6c2.8,0,4.5,2.2,4.5,4.4
		C32.6,11.1,30.9,13.5,27.8,13.5L27.8,13.5z M30.2,11.9c0.4-0.6,0.6-1.3,0.6-2.1c0-1.6-0.8-4.8-3.1-4.8c-0.6,0-1.2,0.2-1.7,0.6
		c-0.7,0.7-0.9,1.5-0.9,2.3c0,1.9,0.9,4.9,3.2,4.9C29,12.9,29.7,12.5,30.2,11.9L30.2,11.9z M17.9,13.5c-3,0-4.6-2.3-4.6-4.4
		c0-2.5,2-4.6,4.8-4.6c2.8,0,4.5,2.2,4.5,4.4C22.6,11.1,20.9,13.5,17.9,13.5L17.9,13.5z M20.2,11.9c0.4-0.6,0.6-1.3,0.6-2.1
		c0-1.6-0.8-4.8-3.1-4.8c-0.6,0-1.2,0.2-1.7,0.6c-0.7,0.7-0.9,1.5-0.9,2.3c0,1.9,0.9,4.9,3.2,4.9C19,12.9,19.8,12.5,20.2,11.9
		L20.2,11.9z M12.1,12.8v-2.1c0-0.2,0-0.7,0-0.8c0-0.1,0.1-0.2,0.2-0.3l0.5-0.4H9L7.6,9.9l2.7-0.1v2.8C9.8,12.8,9.2,13,8.1,13
		c-3.8,0-6.2-3.1-6.2-6.4c0-3.1,2.1-5.2,4.9-5.2c2.1,0,3.2,1.1,3.8,1.6L10,3.8l0.6-0.1l1.5-1.4c-0.4-0.3-1-0.7-2.3-1.1
		C9,0.9,8,0.8,7.1,0.8C2.6,0.8,0,3.9,0,7.3c0,2.8,1.8,6.4,6.7,6.4c1,0,1.9-0.1,2.9-0.3L12.1,12.8L12.1,12.8z M57.7,12.8L61,4.2h1.2
		l3.5,8.6h-1.3l-1-2.6h-3.6l-0.9,2.6H57.7z M60.2,9.3h2.9l-0.9-2.4c-0.3-0.7-0.5-1.3-0.6-1.8c-0.1,0.6-0.3,1.1-0.5,1.6L60.2,9.3z
		 M66.5,12.8V6.6h0.9v0.9c0.5-0.7,1.1-1,2-1c0.4,0,0.7,0.1,1,0.2C70.8,6.8,71,7,71.2,7.2c0.2,0.2,0.3,0.5,0.3,0.8
		c0,0.2,0.1,0.5,0.1,1v3.8h-1.1V9c0-0.4,0-0.8-0.1-1c-0.1-0.2-0.2-0.4-0.4-0.5c-0.2-0.1-0.5-0.2-0.7-0.2c-0.4,0-0.8,0.1-1.2,0.4
		c-0.3,0.3-0.5,0.8-0.5,1.6v3.4H66.5z M77.2,12.1c-0.4,0.3-0.8,0.6-1.1,0.7S75.4,13,74.9,13c-0.7,0-1.2-0.2-1.6-0.5
		c-0.4-0.3-0.5-0.8-0.5-1.3c0-0.3,0.1-0.6,0.2-0.8c0.1-0.3,0.3-0.5,0.5-0.6c0.2-0.2,0.5-0.3,0.8-0.3c0.2-0.1,0.5-0.1,0.9-0.2
		c0.9-0.1,1.5-0.2,1.9-0.4c0-0.1,0-0.2,0-0.3c0-0.4-0.1-0.7-0.3-0.9c-0.3-0.2-0.7-0.4-1.2-0.4c-0.5,0-0.9,0.1-1.1,0.3
		c-0.2,0.2-0.4,0.5-0.5,0.9l-1-0.1c0.1-0.4,0.2-0.8,0.5-1.1C73.7,7,74,6.8,74.4,6.7c0.4-0.1,0.9-0.2,1.4-0.2c0.5,0,1,0.1,1.3,0.2
		c0.3,0.1,0.6,0.3,0.7,0.5c0.2,0.2,0.3,0.4,0.3,0.7c0,0.2,0.1,0.5,0.1,1v1.4c0,1,0,1.6,0.1,1.9c0,0.3,0.1,0.5,0.3,0.7h-1.1
		C77.3,12.6,77.3,12.4,77.2,12.1z M77.1,9.7c-0.4,0.2-1,0.3-1.7,0.4c-0.4,0.1-0.7,0.1-0.9,0.2c-0.2,0.1-0.3,0.2-0.4,0.3
		s-0.1,0.3-0.1,0.5c0,0.3,0.1,0.5,0.3,0.7c0.2,0.2,0.5,0.3,0.9,0.3c0.4,0,0.8-0.1,1.1-0.3c0.3-0.2,0.5-0.4,0.7-0.7
		c0.1-0.2,0.2-0.6,0.2-1.1V9.7z M79.8,12.8V4.2h1.1v8.6H79.8z M82.5,15.2l-0.1-1c0.2,0.1,0.4,0.1,0.6,0.1c0.2,0,0.4,0,0.6-0.1
		c0.1-0.1,0.3-0.2,0.3-0.3c0.1-0.1,0.2-0.4,0.3-0.8c0-0.1,0.1-0.1,0.1-0.3l-2.4-6.2H83l1.3,3.6c0.2,0.5,0.3,0.9,0.5,1.4
		c0.1-0.5,0.3-1,0.4-1.4l1.3-3.6h1.1l-2.4,6.3c-0.3,0.7-0.5,1.2-0.6,1.4c-0.2,0.3-0.4,0.6-0.6,0.8c-0.2,0.2-0.5,0.2-0.9,0.2
		C82.9,15.4,82.7,15.3,82.5,15.2z M90.8,11.9l0.2,0.9c-0.3,0.1-0.6,0.1-0.8,0.1c-0.4,0-0.7-0.1-0.9-0.2c-0.2-0.1-0.4-0.3-0.4-0.5
		c-0.1-0.2-0.1-0.6-0.1-1.2V7.4h-0.8V6.6h0.8V5.1l1-0.6v2.2h1.1v0.8h-1.1v3.6c0,0.3,0,0.5,0.1,0.6c0,0.1,0.1,0.2,0.2,0.2
		c0.1,0.1,0.2,0.1,0.4,0.1C90.5,11.9,90.6,11.9,90.8,11.9z M91.8,5.5V4.2h1.1v1.2H91.8z M91.8,12.8V6.6h1.1v6.2H91.8z M98.6,10.6
		l1,0.1c-0.1,0.7-0.4,1.3-0.9,1.7c-0.5,0.4-1,0.6-1.7,0.6c-0.8,0-1.5-0.3-2.1-0.8c-0.5-0.6-0.8-1.4-0.8-2.4c0-0.7,0.1-1.3,0.3-1.8
		c0.2-0.5,0.6-0.9,1-1.1C96,6.6,96.5,6.5,97,6.5c0.7,0,1.2,0.2,1.7,0.5c0.4,0.3,0.7,0.8,0.8,1.5l-1,0.2c-0.1-0.4-0.3-0.7-0.5-0.9
		c-0.2-0.2-0.5-0.3-0.9-0.3c-0.5,0-1,0.2-1.3,0.6c-0.3,0.4-0.5,1-0.5,1.8c0,0.8,0.2,1.4,0.5,1.8c0.3,0.4,0.7,0.6,1.3,0.6
		c0.4,0,0.8-0.1,1-0.4C98.3,11.5,98.5,11.1,98.6,10.6z M100.1,11l1-0.2c0.1,0.4,0.2,0.7,0.5,1c0.3,0.2,0.6,0.3,1.1,0.3
		c0.5,0,0.8-0.1,1.1-0.3c0.2-0.2,0.4-0.4,0.4-0.7c0-0.2-0.1-0.4-0.3-0.6c-0.1-0.1-0.5-0.2-1.1-0.4c-0.8-0.2-1.3-0.4-1.6-0.5
		c-0.3-0.1-0.5-0.3-0.7-0.6c-0.2-0.3-0.2-0.5-0.2-0.8c0-0.3,0.1-0.5,0.2-0.8c0.1-0.2,0.3-0.4,0.5-0.6c0.2-0.1,0.4-0.2,0.7-0.3
		c0.3-0.1,0.6-0.1,0.9-0.1c0.5,0,0.9,0.1,1.3,0.2c0.4,0.1,0.6,0.3,0.8,0.6s0.3,0.6,0.4,1l-1,0.1c0-0.3-0.2-0.6-0.4-0.7
		c-0.2-0.2-0.5-0.3-1-0.3c-0.5,0-0.8,0.1-1,0.2c-0.2,0.2-0.3,0.3-0.3,0.6c0,0.1,0,0.3,0.1,0.4c0.1,0.1,0.2,0.2,0.4,0.3
		c0.1,0,0.4,0.1,0.9,0.3c0.7,0.2,1.3,0.4,1.6,0.5c0.3,0.1,0.5,0.3,0.7,0.6c0.2,0.2,0.3,0.5,0.3,0.9c0,0.4-0.1,0.7-0.3,1
		c-0.2,0.3-0.5,0.5-0.9,0.7c-0.4,0.2-0.8,0.3-1.3,0.3c-0.8,0-1.4-0.2-1.8-0.5S100.2,11.6,100.1,11z"/>
</g>
<g>
</g>
<g>
</g>
<g>
</g>
<g>
</g>
<g>
</g>
<g>
</g>
<g>
</g>
<g>
</g>
<g>
</g>
<g>
</g>
<g>
</g>
<g>
</g>
<g>
</g>
<g>
</g>
<g>
</g>
</svg>
