<?xml version="1.0" encoding="utf-8"?>
<!-- Generator: Adobe Illustrator 16.0.0, SVG Export Plug-In . SVG Version: 6.00 Build 0)  -->
<!DOCTYPE svg PUBLIC "-//W3C//DTD SVG 1.1//EN" "http://www.w3.org/Graphics/SVG/1.1/DTD/svg11.dtd">
<svg version="1.1" id="Layer_1" xmlns="http://www.w3.org/2000/svg" xmlns:xlink="http://www.w3.org/1999/xlink" x="0px" y="0px"
	 width="174px" height="34px" viewBox="0 0 174 34" enable-background="new 0 0 174 34" xml:space="preserve">
<g>
	<path fill="#F7F6F4" d="M2.2,0C1,0,0,1,0,2.2c0,1.2,1,2.2,2.2,2.2s2.2-1,2.2-2.2C4.4,1,3.4,0,2.2,0z"/>
	<rect x="0.5" y="8.1" fill="#F7F6F4" width="3.4" height="16.6"/>
	<path fill="#F7F6F4" d="M14,14.7c-1.7-0.4-3-0.8-3-1.9c0-1.3,1.4-2.1,3-2.1c1.3,0,2.5,0.5,3.6,1.3l1.7-2.4
		c-1.3-1.1-3.1-1.8-5.5-1.8c-3,0-6.1,1.6-6.1,5.2c0,2.3,1.8,3.6,3.8,4.3c2.4,0.8,5.2,0.9,5.2,2.8c0,1.3-1.4,2.1-2.9,2.1
		c-1.7,0-3.4-0.6-4.9-1.8l-1.7,2.5c1.8,1.5,4.1,2.3,6.7,2.3c3.3,0,6.2-1.9,6.2-5.1C20.1,16.6,16.6,15.4,14,14.7z"/>
	<path fill="#F7F6F4" d="M30.3,7.8c-4.9,0-8.6,3.7-8.6,8.7c0,4.9,3.7,8.7,8.6,8.7s8.6-3.7,8.6-8.7C38.9,11.5,35.2,7.8,30.3,7.8z
		 M30.3,21.9c-3.1,0-5.2-2.4-5.2-5.5c0-3,2.2-5.5,5.2-5.5s5.2,2.4,5.2,5.5C35.5,19.5,33.4,21.9,30.3,21.9z"/>
	<path fill="#F7F6F4" d="M54.4,9.6c-1.5-1.3-3.3-1.9-5.2-1.9c-1.6,0-2.9,0.4-4.1,1.1c-2.5,1.5-4.3,4.3-4.3,7.6
		c0,3.3,1.7,6.1,4.2,7.6c1.1,0.7,2.7,1.1,4.2,1.1c2,0,3.7-0.6,5-1.8v0.9c0,2.1-0.3,3.4-0.9,4.3c-0.8,1.2-2.2,1.9-4,1.9
		c-2.7,0-4.3-1.4-5.5-3l-2.5,2.3c1.1,1.7,3.8,3.9,8.1,3.9c3.3,0,5.8-1.5,7.2-4.1c0.7-1.3,1-3,1-5.4V8.1h-3.3V9.6z M54.3,19.5
		c-1.1,1.5-2.9,2.4-4.6,2.4c-3.2,0-5.5-2.5-5.5-5.5c0-2.9,2.1-5.5,5.3-5.5c2,0,3.7,1,4.7,2.4V19.5z"/>
	<path fill="#F7F6F4" d="M64.7,10V8.1h-3.3v16.6h3.4v-11c0.9-1.6,2.8-2.8,4.5-2.8c0.5,0,0.9,0,1.3,0.1L71,7.9
		c-0.4-0.1-1-0.1-1.3-0.1C67.2,7.8,65.5,8.9,64.7,10z"/>
	<path fill="#F7F6F4" d="M85.9,9.6c-1.5-1.3-3.3-1.9-5.2-1.9c-1.6,0-2.9,0.4-4.1,1.1c-2.5,1.5-4.3,4.3-4.3,7.6
		c0,3.3,1.7,6.1,4.2,7.6c1.1,0.7,2.7,1.1,4.2,1.1c2,0,3.8-0.7,5.1-1.9v1.5h3.3V8.1h-3.3V9.6z M85.8,19.5c-1.1,1.5-2.9,2.4-4.6,2.4
		c-3.2,0-5.5-2.5-5.5-5.5c0-2.9,2.1-5.5,5.3-5.5c2,0,3.7,1,4.7,2.4V19.5z"/>
	<path fill="#F7F6F4" d="M153.4,7.8c-4.7,0-8.1,3.7-8.1,8.7c0,5,3.7,8.7,8.6,8.7c3.4,0,5.8-1.5,7-3.1l-2.2-2.1
		c-1,1.1-2.3,2.3-4.8,2.3c-2.9,0-5.2-2.2-5.4-5h12.8c0-0.3,0-0.6,0-0.7C161.4,11.5,158,7.8,153.4,7.8z M148.9,14.3
		c0.6-2.2,2.5-3.6,4.7-3.6c2,0,3.9,1.5,4.4,3.6H148.9z"/>
	<path fill="#F7F6F4" d="M173.1,7.8c-2.4,0-4.2,1.1-5,2.3V8.1h-3.2v16.6h3.4v-11c0.9-1.6,2.8-2.8,4.5-2.8c0.5,0,0.9,0,1.3,0.1
		l0.4-3.2C174,7.8,173.4,7.8,173.1,7.8z"/>
	<path fill="#F7F6F4" d="M134.8,7.8c-3,0-4.8,1.2-6.3,2.8c-1.4-1.7-3.4-2.8-5.9-2.8c-2,0-3.8,0.9-4.6,1.7v0.1
		c-1.3-1.1-3-1.7-4.9-1.7c-3,0-4.8,1.2-6.3,2.8c-1.4-1.7-3.4-2.8-5.9-2.8c-2.3,0-4.2,1.2-4.9,1.9V8.1h-3.2v16.6h3.4V13.3
		c1-1.1,2.6-2.4,4.7-2.4c1.3,0,2.5,0.6,3.2,1.4c0.6,0.7,1,1.6,1,3.3v9h3.4v-8.5c0-1.2-0.1-2.1-0.3-2.9c1.1-1.1,2.7-2.4,5.1-2.4
		c1.2,0,2.4,0.6,3.1,1.4c0.6,0.7,1,1.6,1,3.3v9h3.4v-8.5c0-2-0.3-3.4-0.8-4.5c0.8-0.4,1.7-0.8,2.7-0.8c1.3,0,2.5,0.6,3.2,1.4
		c0.6,0.7,1,1.6,1,3.3v9h3.4v-8.5c0-1.2-0.1-2.1-0.3-2.9c1.1-1.1,2.6-2.4,5.1-2.4c1.2,0,2.4,0.6,3.1,1.4c0.6,0.7,1,1.6,1,3.3v9h3.4
		v-8.5c0-2.8-0.5-4.4-1.5-5.7C139.3,8.8,137.2,7.8,134.8,7.8z"/>
</g>
</svg>
